<svg width="600" height="600" xmlns="http://www.w3.org/2000/svg" xmlns:xlink="http://www.w3.org/1999/xlink" preserveAspectRatio="xMidYMid meet">
 <defs>
  <path id="aByZANxBw" d="m258.97,25.5l5.26,1.64l5.17,1.84l5.08,2.03l4.97,2.22l4.87,2.41l4.76,2.58l4.65,2.77l4.53,2.93l4.4,3.11l4.28,3.26l4.15,3.43l4.02,3.58l3.87,3.72l3.73,3.88l3.57,4.01l3.43,4.15l3.27,4.28l3.1,4.41l2.93,4.53l2.77,4.64l2.59,4.76l2.4,4.87l2.22,4.98l2.03,5.07l1.84,5.17l1.64,5.26l1.43,5.34l1.23,5.43l1.01,5.5l0.79,5.58l0.58,5.64l0.35,5.71l0.11,5.77l-0.11,5.77l-0.35,5.7l-0.58,5.65l-0.79,5.58l-1.01,5.5l-1.23,5.43l-1.43,5.34l-1.64,5.26l-1.84,5.17l-2.03,5.07l-2.22,4.98l-2.4,4.86l-2.59,4.77l-2.77,4.64l-2.93,4.53l-3.1,4.41l-3.27,4.28l-3.43,4.15l-3.57,4.01l-3.73,3.87l-3.87,3.73l-4.02,3.58l-4.15,3.43l-4.28,3.26l-2.59,1.83l119.93,275.18l-0.03,0.02l-65.41,0l-102.87,-236.02l0,0l-7.05,-16.17l-1.94,0.36l-5.58,0.79l-5.64,0.57l-5.71,0.35l-5.77,0.12l-5.76,-0.12l-5.71,-0.35l-5.65,-0.57l-5.57,-0.79l-1.93,-0.36l-31.47,72.19l90.38,0l27.38,62.81l-145.14,0l-24.93,57.18l194.99,0l26.16,60l-247.3,0l0,0.01l-65.4,0l-0.05,-0.02l112.48,-258.04l0.06,0.03l117.15,-268.79l3.94,0.89l5.34,1.43zm-29.85,-5.18l-26.88,61.67l-1.46,0.33l-3.05,0.82l-3.01,0.94l-2.95,1.05l-2.9,1.16l-2.84,1.27l-2.78,1.37l-2.72,1.48l-2.66,1.58l-2.59,1.68l-2.52,1.77l-2.44,1.87l-2.37,1.95l-2.3,2.05l-2.21,2.13l-2.13,2.21l-2.04,2.29l-1.96,2.38l-1.87,2.44l-1.77,2.52l-1.68,2.59l-1.58,2.65l-1.48,2.72l-1.37,2.79l-1.27,2.84l-1.16,2.9l-1.05,2.95l-0.94,3.01l-0.81,3.05l-0.7,3.1l-0.58,3.15l-0.46,3.18l-0.33,3.23l-0.19,3.26l-0.07,3.3l0.07,3.29l0.19,3.26l0.33,3.23l0.46,3.18l0.58,3.15l0.7,3.1l0.81,3.05l0.94,3.01l1.05,2.95l1.16,2.9l1.27,2.84l1.37,2.79l1.48,2.72l0.36,0.61l-26.87,61.66l-2.87,-2.77l-3.73,-3.87l-3.58,-4.01l-3.42,-4.15l-3.27,-4.28l-3.1,-4.41l-2.94,-4.53l-2.76,-4.64l-2.59,-4.77l-2.41,-4.86l-2.22,-4.98l-2.03,-5.07l-1.84,-5.17l-1.63,-5.26l-1.44,-5.34l-1.22,-5.43l-1.01,-5.5l-0.8,-5.58l-0.57,-5.65l-0.35,-5.7l-0.12,-5.77l0.12,-5.77l0.35,-5.71l0.57,-5.64l0.8,-5.58l1.01,-5.5l1.22,-5.43l1.44,-5.34l1.63,-5.26l1.84,-5.17l2.03,-5.07l2.22,-4.98l2.41,-4.87l2.59,-4.76l2.76,-4.64l2.94,-4.53l3.1,-4.41l3.27,-4.28l3.42,-4.15l3.58,-4.01l3.73,-3.88l3.87,-3.72l4.01,-3.58l4.15,-3.43l4.28,-3.26l4.41,-3.11l4.53,-2.93l4.65,-2.77l4.76,-2.58l4.87,-2.41l4.97,-2.22l5.07,-2.03l5.17,-1.84l5.26,-1.64l5.35,-1.43l5.42,-1.22l5.51,-1.02l5.57,-0.79l5.65,-0.58l5.71,-0.34l5.76,-0.12l5.77,0.12l3.35,0.2zm-5.83,219.61l3.27,-0.2l3.22,-0.33l3.19,-0.45l3.14,-0.58l3.1,-0.7l3.06,-0.82l3,-0.94l2.96,-1.05l2.9,-1.16l2.84,-1.26l2.78,-1.38l2.72,-1.48l2.66,-1.58l2.58,-1.68l2.52,-1.77l2.45,-1.87l2.37,-1.95l2.29,-2.05l2.22,-2.13l2.13,-2.21l2.04,-2.29l1.96,-2.37l1.86,-2.45l1.78,-2.52l1.68,-2.59l1.58,-2.65l1.47,-2.72l1.38,-2.79l1.27,-2.84l1.16,-2.9l1.05,-2.95l0.93,-3.01l0.82,-3.05l0.7,-3.1l0.58,-3.15l0.46,-3.18l0.32,-3.23l0.2,-3.26l0.07,-3.29l-0.07,-3.3l-0.2,-3.26l-0.32,-3.23l-0.46,-3.18l-0.58,-3.15l-0.7,-3.1l-0.82,-3.05l-0.93,-3.01l-1.05,-2.95l-1.16,-2.9l-1.27,-2.84l-1.38,-2.79l-1.47,-2.72l-1.58,-2.65l-1.68,-2.59l-1.78,-2.52l-1.86,-2.44l-1.96,-2.38l-1.74,-1.95l-58.41,133.99l2.71,-0.05z"/>
 </defs>
 <g>
  <title>background</title>
  <rect fill="none" id="canvas_background" height="602" width="602" y="-1" x="-1"/>
 </g>
 <g>
  <title>Layer 1</title>
  <g transform="rotate(-40 254.00003051757827,258.9999694824219) " id="svg_1">
   <g id="svg_2">
    <g id="svg_3">
     <use x="34.000033" y="-26.000026" id="svg_4" fill="#ffffff" xlink:href="#aByZANxBw"/>
    </g>
   </g>
  </g>
 </g>
</svg>