<?xml version="1.0" encoding="UTF-8" standalone="no"?>
<!DOCTYPE svg PUBLIC "-//W3C//DTD SVG 1.1//EN" "http://www.w3.org/Graphics/SVG/1.1/DTD/svg11.dtd">
<svg version="1.1" xmlns="http://www.w3.org/2000/svg" xmlns:xlink="http://www.w3.org/1999/xlink" preserveAspectRatio="xMidYMid meet" viewBox="0 0 440 570" width="440" height="570"><defs><path d="M258.97 25.5L264.23 27.14L269.4 28.98L274.48 31.01L279.45 33.23L284.32 35.64L289.08 38.22L293.73 40.99L298.26 43.92L302.66 47.03L306.94 50.29L311.09 53.72L315.11 57.3L318.98 61.02L322.71 64.9L326.28 68.91L329.71 73.06L332.98 77.34L336.08 81.75L339.01 86.28L341.78 90.92L344.37 95.68L346.77 100.55L348.99 105.53L351.02 110.6L352.86 115.77L354.5 121.03L355.93 126.37L357.16 131.8L358.17 137.3L358.96 142.88L359.54 148.52L359.89 154.23L360 160L359.89 165.77L359.54 171.47L358.96 177.12L358.17 182.7L357.16 188.2L355.93 193.63L354.5 198.97L352.86 204.23L351.02 209.4L348.99 214.47L346.77 219.45L344.37 224.31L341.78 229.08L339.01 233.72L336.08 238.25L332.98 242.66L329.71 246.94L326.28 251.09L322.71 255.1L318.98 258.97L315.11 262.7L311.09 266.28L306.94 269.71L302.66 272.97L300.07 274.8L420 549.98L419.97 550L354.56 550L251.69 313.98L251.69 313.98L244.64 297.81L242.7 298.17L237.12 298.96L231.48 299.53L225.77 299.88L220 300L214.24 299.88L208.53 299.53L202.88 298.96L197.31 298.17L195.38 297.81L163.91 370L254.29 370L281.67 432.81L136.53 432.81L111.6 489.99L306.59 489.99L332.75 549.99L85.45 549.99L85.45 550L20.05 550L20 549.98L132.48 291.94L132.54 291.97L249.69 23.18L253.63 24.07L258.97 25.5ZM229.12 20.32L202.24 81.99L200.78 82.32L197.73 83.14L194.72 84.08L191.77 85.13L188.87 86.29L186.03 87.56L183.25 88.93L180.53 90.41L177.87 91.99L175.28 93.67L172.76 95.44L170.32 97.31L167.95 99.26L165.65 101.31L163.44 103.44L161.31 105.65L159.27 107.94L157.31 110.32L155.44 112.76L153.67 115.28L151.99 117.87L150.41 120.52L148.93 123.24L147.56 126.03L146.29 128.87L145.13 131.77L144.08 134.72L143.14 137.73L142.33 140.78L141.63 143.88L141.05 147.03L140.59 150.21L140.26 153.44L140.07 156.7L140 160L140.07 163.29L140.26 166.55L140.59 169.78L141.05 172.96L141.63 176.11L142.33 179.21L143.14 182.26L144.08 185.27L145.13 188.22L146.29 191.12L147.56 193.96L148.93 196.75L150.41 199.47L150.77 200.08L123.9 261.74L121.03 258.97L117.3 255.1L113.72 251.09L110.3 246.94L107.03 242.66L103.93 238.25L100.99 233.72L98.23 229.08L95.64 224.31L93.23 219.45L91.01 214.47L88.98 209.4L87.14 204.23L85.51 198.97L84.07 193.63L82.85 188.2L81.84 182.7L81.04 177.12L80.47 171.47L80.12 165.77L80 160L80.12 154.23L80.47 148.52L81.04 142.88L81.84 137.3L82.85 131.8L84.07 126.37L85.51 121.03L87.14 115.77L88.98 110.6L91.01 105.53L93.23 100.55L95.64 95.68L98.23 90.92L100.99 86.28L103.93 81.75L107.03 77.34L110.3 73.06L113.72 68.91L117.3 64.9L121.03 61.02L124.9 57.3L128.91 53.72L133.06 50.29L137.34 47.03L141.75 43.92L146.28 40.99L150.93 38.22L155.69 35.64L160.56 33.23L165.53 31.01L170.6 28.98L175.77 27.14L181.03 25.5L186.38 24.07L191.8 22.85L197.31 21.83L202.88 21.04L208.53 20.46L214.24 20.12L220 20L225.77 20.12L229.12 20.32ZM223.29 239.93L226.56 239.73L229.78 239.4L232.97 238.95L236.11 238.37L239.21 237.67L242.27 236.85L245.27 235.91L248.23 234.86L251.13 233.7L253.97 232.44L256.75 231.06L259.47 229.58L262.13 228L264.71 226.32L267.23 224.55L269.68 222.68L272.05 220.73L274.34 218.68L276.56 216.55L278.69 214.34L280.73 212.05L282.69 209.68L284.55 207.23L286.33 204.71L288.01 202.12L289.59 199.47L291.06 196.75L292.44 193.96L293.71 191.12L294.87 188.22L295.92 185.27L296.85 182.26L297.67 179.21L298.37 176.11L298.95 172.96L299.41 169.78L299.73 166.55L299.93 163.29L300 160L299.93 156.7L299.73 153.44L299.41 150.21L298.95 147.03L298.37 143.88L297.67 140.78L296.85 137.73L295.92 134.72L294.87 131.77L293.71 128.87L292.44 126.03L291.06 123.24L289.59 120.52L288.01 117.87L286.33 115.28L284.55 112.76L282.69 110.32L280.73 107.94L278.99 105.99L220.58 239.98L223.29 239.93Z" id="aByZANxBw"></path></defs><g><g><g><use xlink:href="#aByZANxBw" opacity="1" fill="#000000" fill-opacity="1"></use></g></g></g></svg>