<?xml version="1.0" encoding="UTF-8" standalone="no"?>
<svg
   xmlns:dc="http://purl.org/dc/elements/1.1/"
   xmlns:cc="http://creativecommons.org/ns#"
   xmlns:rdf="http://www.w3.org/1999/02/22-rdf-syntax-ns#"
   xmlns:svg="http://www.w3.org/2000/svg"
   xmlns="http://www.w3.org/2000/svg"
   xmlns:xlink="http://www.w3.org/1999/xlink"
   xmlns:sodipodi="http://sodipodi.sourceforge.net/DTD/sodipodi-0.dtd"
   xmlns:inkscape="http://www.inkscape.org/namespaces/inkscape"
   width="200"
   height="200"
   preserveAspectRatio="xMidYMid meet"
   id="svg2"
   version="1.1"
   inkscape:version="0.91 r13725"
   sodipodi:docname="logo.svg">
  <metadata
     id="metadata22">
    <rdf:RDF>
      <cc:Work
         rdf:about="">
        <dc:format>image/svg+xml</dc:format>
        <dc:type
           rdf:resource="http://purl.org/dc/dcmitype/StillImage" />
        <dc:title></dc:title>
      </cc:Work>
    </rdf:RDF>
  </metadata>
  <sodipodi:namedview
     pagecolor="#ffffff"
     bordercolor="#666666"
     borderopacity="1"
     objecttolerance="10"
     gridtolerance="10"
     guidetolerance="10"
     inkscape:pageopacity="0"
     inkscape:pageshadow="2"
     inkscape:window-width="1242"
     inkscape:window-height="626"
     id="namedview20"
     showgrid="false"
     inkscape:zoom="2"
     inkscape:cx="108.92778"
     inkscape:cy="92.1399"
     inkscape:window-x="0"
     inkscape:window-y="0"
     inkscape:window-maximized="0"
     inkscape:current-layer="svg2" />
  <defs
     id="defs4">
    <path
       id="aByZANxBw"
       d="m 258.97,25.5 5.26,1.64 5.17,1.84 5.08,2.03 4.97,2.22 4.87,2.41 4.76,2.58 4.65,2.77 4.53,2.93 4.4,3.11 4.28,3.26 4.15,3.43 4.02,3.58 3.87,3.72 3.73,3.88 3.57,4.01 3.43,4.15 3.27,4.28 3.1,4.41 2.93,4.53 2.77,4.64 2.59,4.76 2.4,4.87 2.22,4.98 2.03,5.07 1.84,5.17 1.64,5.26 1.43,5.34 1.23,5.43 1.01,5.5 0.79,5.58 0.58,5.64 0.35,5.71 0.11,5.77 -0.11,5.77 -0.35,5.7 -0.58,5.65 -0.79,5.58 -1.01,5.5 -1.23,5.43 -1.43,5.34 -1.64,5.26 -1.84,5.17 -2.03,5.07 -2.22,4.98 -2.4,4.86 -2.59,4.77 -2.77,4.64 -2.93,4.53 -3.1,4.41 -3.27,4.28 -3.43,4.15 -3.57,4.01 -3.73,3.87 -3.87,3.73 -4.02,3.58 -4.15,3.43 -4.28,3.26 -2.59,1.83 119.93,275.18 -0.03,0.02 -65.41,0 -102.87,-236.02 0,0 -7.05,-16.17 -1.94,0.36 -5.58,0.79 -5.64,0.57 -5.71,0.35 -5.77,0.12 -5.76,-0.12 -5.71,-0.35 -5.65,-0.57 -5.57,-0.79 -1.93,-0.36 -31.47,72.19 90.38,0 27.38,62.81 -145.14,0 -24.93,57.18 194.99,0 26.16,60 -247.3,0 0,0.01 -65.4,0 -0.05,-0.02 112.48,-258.04 0.06,0.03 117.15,-268.79 3.94,0.89 5.34,1.43 z m -29.85,-5.18 -26.88,61.67 -1.46,0.33 -3.05,0.82 -3.01,0.94 -2.95,1.05 -2.9,1.16 -2.84,1.27 -2.78,1.37 -2.72,1.48 -2.66,1.58 -2.59,1.68 -2.52,1.77 -2.44,1.87 -2.37,1.95 -2.3,2.05 -2.21,2.13 -2.13,2.21 -2.04,2.29 -1.96,2.38 -1.87,2.44 -1.77,2.52 -1.68,2.59 -1.58,2.65 -1.48,2.72 -1.37,2.79 -1.27,2.84 -1.16,2.9 -1.05,2.95 -0.94,3.01 -0.81,3.05 -0.7,3.1 -0.58,3.15 -0.46,3.18 -0.33,3.23 -0.19,3.26 -0.07,3.3 0.07,3.29 0.19,3.26 0.33,3.23 0.46,3.18 0.58,3.15 0.7,3.1 0.81,3.05 0.94,3.01 1.05,2.95 1.16,2.9 1.27,2.84 1.37,2.79 1.48,2.72 0.36,0.61 -26.87,61.66 -2.87,-2.77 -3.73,-3.87 -3.58,-4.01 -3.42,-4.15 -3.27,-4.28 -3.1,-4.41 -2.94,-4.53 -2.76,-4.64 -2.59,-4.77 -2.41,-4.86 -2.22,-4.98 -2.03,-5.07 -1.84,-5.17 -1.63,-5.26 -1.44,-5.34 -1.22,-5.43 -1.01,-5.5 -0.8,-5.58 -0.57,-5.65 -0.35,-5.7 L 80,160 l 0.12,-5.77 0.35,-5.71 0.57,-5.64 0.8,-5.58 1.01,-5.5 1.22,-5.43 1.44,-5.34 1.63,-5.26 1.84,-5.17 2.03,-5.07 2.22,-4.98 2.41,-4.87 2.59,-4.76 2.76,-4.64 2.94,-4.53 3.1,-4.41 3.27,-4.28 3.42,-4.15 3.58,-4.01 3.73,-3.88 3.87,-3.72 4.01,-3.58 4.15,-3.43 4.28,-3.26 4.41,-3.11 4.53,-2.93 4.65,-2.77 4.76,-2.58 4.87,-2.41 4.97,-2.22 5.07,-2.03 5.17,-1.84 5.26,-1.64 5.35,-1.43 5.42,-1.22 5.51,-1.02 5.57,-0.79 5.65,-0.58 5.71,-0.34 5.76,-0.12 5.77,0.12 3.35,0.2 z m -5.83,219.61 3.27,-0.2 3.22,-0.33 3.19,-0.45 3.14,-0.58 3.1,-0.7 3.06,-0.82 3,-0.94 2.96,-1.05 2.9,-1.16 2.84,-1.26 2.78,-1.38 2.72,-1.48 2.66,-1.58 2.58,-1.68 2.52,-1.77 2.45,-1.87 2.37,-1.95 2.29,-2.05 2.22,-2.13 2.13,-2.21 2.04,-2.29 1.96,-2.37 1.86,-2.45 1.78,-2.52 1.68,-2.59 1.58,-2.65 1.47,-2.72 1.38,-2.79 1.27,-2.84 1.16,-2.9 1.05,-2.95 0.93,-3.01 0.82,-3.05 0.7,-3.1 0.58,-3.15 0.46,-3.18 0.32,-3.23 0.2,-3.26 0.07,-3.29 -0.07,-3.3 -0.2,-3.26 -0.32,-3.23 -0.46,-3.18 -0.58,-3.15 -0.7,-3.1 -0.82,-3.05 -0.93,-3.01 -1.05,-2.95 -1.16,-2.9 -1.27,-2.84 -1.38,-2.79 -1.47,-2.72 -1.58,-2.65 -1.68,-2.59 -1.78,-2.52 -1.86,-2.44 -1.96,-2.38 -1.74,-1.95 -58.41,133.99 2.71,-0.05 z"
       inkscape:connector-curvature="0" />
  </defs>
  <circle
     style="fill:#4c4a88;fill-opacity:1"
     id="path4248"
     cx="100"
     cy="100"
     r="100" />
  <g
     id="g7"
     transform="translate(0,-400)">
    <title
       id="title9">background</title>
    <rect
       id="canvas_background"
       height="602"
       width="602"
       y="-1"
       x="-1"
       style="fill:none" />
  </g>
  <g
     id="g12"
     transform="matrix(0.25742396,0,0,0.24679769,31.32871,29.255119)">
    <title
       id="title14">Layer 1</title>
    <g
       transform="matrix(0.76604444,-0.64278761,0.64278761,0.76604444,-107.05725,223.86255)"
       id="svg_1">
      <g
         id="svg_2">
        <g
           id="svg_3">
          <use
             x="34.000034"
             y="-26.000027"
             id="svg_4"
             xlink:href="#aByZANxBw"
             style="fill:#ffffff"
             width="100%"
             height="100%" />
        </g>
      </g>
    </g>
  </g>
</svg>
